<svg xmlns="http://www.w3.org/2000/svg" width="31.424" height="31.424" viewBox="0 0 31.424 31.424">
  <path id="Path_30" data-name="Path 30" d="M6.492,23.949H3v6.983a3.5,3.5,0,0,0,3.492,3.492h6.983V30.933H6.492Zm0-17.458h6.983V3H6.492A3.5,3.5,0,0,0,3,6.492v6.983H6.492ZM30.933,3H23.949V6.492h6.983v6.983h3.492V6.492A3.5,3.5,0,0,0,30.933,3Zm0,27.933H23.949v3.492h6.983a3.5,3.5,0,0,0,3.492-3.492V23.949H30.933Zm-12.221-19.2A6.983,6.983,0,1,0,25.7,18.712,6.981,6.981,0,0,0,18.712,11.729Zm0,10.475A3.492,3.492,0,1,1,22.2,18.712,3.5,3.5,0,0,1,18.712,22.2Z" transform="translate(-3 -3)" fill="currentColor"/>
</svg>
