<svg xmlns="http://www.w3.org/2000/svg" width="30.271" height="31.038" viewBox="0 0 30.271 31.038">
  <path id="Path_46" data-name="Path 46" d="M6.225,19.439a11.406,11.406,0,0,1-.1-1.52,9.314,9.314,0,0,1,.113-1.52l-3.29-2.554a.792.792,0,0,1-.195-.986L5.868,7.492a.793.793,0,0,1,.956-.356L10.7,8.688a11.457,11.457,0,0,1,2.626-1.52l.584-4.106a.784.784,0,0,1,.778-.663h6.224a.767.767,0,0,1,.762.663l.583,4.106a11.71,11.71,0,0,1,2.626,1.52l3.874-1.552a.775.775,0,0,1,.956.356l3.1,5.367a.734.734,0,0,1-.194.986L29.322,16.4a8.97,8.97,0,0,1,.032,3.039l3.29,2.554a.792.792,0,0,1,.194.986l-3.112,5.367a.793.793,0,0,1-.956.356L24.9,27.15a11.458,11.458,0,0,1-2.626,1.52l-.584,4.106a.8.8,0,0,1-.778.663H14.685a.755.755,0,0,1-.762-.663l-.584-4.106a11.124,11.124,0,0,1-2.626-1.52L6.841,28.7a.775.775,0,0,1-.956-.356L2.772,22.979a.747.747,0,0,1,.195-.986Zm11.573,4.3a5.82,5.82,0,1,0-5.835-5.82A5.844,5.844,0,0,0,17.8,23.739Z" transform="translate(-2.662 -2.4)" fill="currentColor"/>
</svg>
